<?xml version="1.0" encoding="UTF-8"?>
<svg id="Layer_2" xmlns="http://www.w3.org/2000/svg" version="1.1" viewBox="0 0 209.2 118.4">
  <!-- Generator: Adobe Illustrator 29.2.1, SVG Export Plug-In . SVG Version: 2.1.0 Build 116)  -->
  <defs>
    <style>
      .st0 {
        fill: #e01983;
      }
    </style>
  </defs>
  <g id="Layer_1-2">
    <g>
      <path class="st0" d="M93,118c-20.4,2-40.6-3.2-57.7-15C17.2,90.5,4.7,72,0,50.6c7.9-1.1,15.9-1.2,23.6-.2,2.7,10.6,7.4,20.7,13.8,29.9,13.4,19.2,33,32.5,55.6,37.7Z"/>
      <path class="st0" d="M209.1,50.6c-4.8,21.4-17.2,39.9-35.3,52.4-17.1,11.8-37.3,17-57.7,15,34.7-8,60.8-34.8,69.4-67.5,7.7-1,15.6-1.1,23.7,0h0Z"/>
      <path class="st0" d="M89.2,110.1c-18.8-5.6-35-17.2-46.4-33.6-5.4-7.7-9.4-16.1-12-24.9-.4-1.2-.7-2.4-1-3.6s-.6-2.4-.8-3.6c-2-9.6-2.3-19.5-.9-29.5,18,4,33.6,13.4,45.3,26.2-1.5,6-2.3,12-2.3,18.1,0,17.3,6.2,34.6,18,50.8h.1Z"/>
      <path class="st0" d="M179.9,44.6c-.2,1.2-.5,2.4-.8,3.6-.3,1.2-.6,2.4-1,3.6-8.2,27.4-29.7,49.9-58.3,58.4,11.9-16.2,18.1-33.5,18.1-50.8s-.8-12.1-2.3-18.1c11.6-12.8,27.2-22.2,45.3-26.2,1.4,10.1,1,20.1-1,29.5h0Z"/>
      <path class="st0" d="M131.2,59.3c0,16.5-6.2,33-18.1,48.5-.9,1.3-1.9,2.5-2.9,3.7-.9,1.1-1.9,2.2-2.9,3.3-.9,1.1-1.9,2.1-2.9,3.1-1-1-1.9-2.1-2.9-3.1-1-1.1-2-2.2-2.9-3.3-1-1.2-2-2.4-2.9-3.7-11.8-15.5-18-32-18-48.5s.3-7.7,1-11.6c.3-1.4.6-2.9.9-4.3.3-1.3.6-2.6,1-3.9,4-13.4,12-26.5,23.7-38.8,11.7,12.3,19.7,25.4,23.7,38.7.4,1.3.8,2.6,1.1,4,.4,1.4.7,2.9.9,4.3.7,3.9,1,7.7,1,11.6h.2Z"/>
    </g>
  </g>
</svg>