<svg width="18" height="16" viewBox="0 0 18 16" fill="none" xmlns="http://www.w3.org/2000/svg">
<path d="M4.7106 0C2.3238 0 0 1.62578 0 4.60178C0 7.91289 3.9105 11.4702 8.3727 15.7484C8.5473 15.9164 8.7741 16 9 16C9.2259 16 9.4527 15.9164 9.6273 15.7484C14.1066 11.4542 18 7.91378 18 4.60178C18 1.62133 15.678 0.00800006 13.2939 0.00800006C11.6415 0.00800006 10.0125 1.22193 9 2.72238C7.983 1.21482 6.3585 0 4.7106 0ZM4.7106 1.33333C6.5016 1.33422 7.5924 2.536 8.4501 3.73333C8.5761 3.90933 8.7813 4.01422 9 4.01511C9.2187 4.01511 9.4239 3.91111 9.5508 3.736C10.4103 2.54578 11.5218 1.34133 13.2939 1.34133C14.9103 1.34133 16.65 2.36178 16.65 4.60178C16.65 6.976 14.0571 9.64445 9 14.4924C4.0914 9.79467 1.35 7.03556 1.35 4.60178C1.35 3.60178 1.7001 2.76267 2.3616 2.17778C2.9673 1.64089 3.8241 1.33333 4.7106 1.33333Z" fill="#0C331F"/>
</svg>
