<?xml version="1.0" encoding="UTF-8"?>
<svg id="Layer_2" xmlns="http://www.w3.org/2000/svg" version="1.1" viewBox="0 0 590.5 153.8">
  <!-- Generator: Adobe Illustrator 29.2.1, SVG Export Plug-In . SVG Version: 2.1.0 Build 116)  -->
  <defs>
    <style>
      .st0 {
        fill: #e01983;
      }
    </style>
  </defs>
  <g id="Layer_1-2">
    <g>
      <path class="st0" d="M13.6,12.6c-5.4,0-9.6,4.8-9.6,9.6s4.1,10.4,9.6,10.4,9.6-4.2,9.6-10.4-4.1-9.6-9.6-9.6ZM27.2,116.8c-2.7,0-4.6-1.6-4.6-5.3V38.8H0v2.8h2.3c2.5,0,5.2.2,5.2,5.1v64.8c0,5-2.5,5.3-5,5.3H.6v3h28.4v-3h-1.8Z"/>
      <path class="st0" d="M73.2,56.3c13.9-2.7,23.5-16.6,23.5-29.9C96.7,7.4,83.1,0,66.2,0h-33.7v2.8h1.4c6.8,0,6.8,5.1,6.8,8.7v95.9c0,5.3,0,9.4-6.6,9.4h-1.8v3h37.1c17.5,0,30.8-14,30.8-31.2s-10.5-29-27.1-32.4ZM57.3,3.5h4.4c7,0,18.2,1.4,18.2,25s-7.3,26.2-15.5,26.2h-7.1V3.5ZM66.4,116.1h-4.8c-1.4,0-4.3-.2-4.3-4.8h0v-52.6h6.8c4.6,0,18.5,3.5,18.5,30.4s-5.3,26.9-16.2,26.9Z"/>
      <path class="st0" d="M106.3,46.7c0-4.9-2.7-5.1-5.2-5.1h-2.3v-2.8h22.5v62.7c0,7.8,2.5,13.6,10.9,13.6s9.8-3.9,10.3-8.8v-59.5c0-4.9-2.7-5.1-5.2-5.1h-2.3v-2.8h22.5v72.7c0,3.7,2,5.3,4.6,5.3h1.8v3h-21.4v-6.2c-2.1,3-8,7.2-14.6,7.2-12.1,0-21.6-7.1-21.6-21.8v-52.4h0,0Z"/>
      <path class="st0" d="M168.9,45.7c-1.4-3.9-4.1-4.1-8.6-4.1v-2.8h31.6v2.8c-3.4,0-7.1.2-7.1,3.7l13.2,53.6c1.2-5.5,14.8-52.6,14.8-53.6,0-3.5-3.4-3.7-6.8-3.7v-2.8h21.8v2.8c-5,.2-7.8.5-9.3,4.1-11.1,38.6-18.4,62.1-23.4,75.9-3.8,11.7-10.7,32.2-25.3,32.2s-12.7-3.7-12.7-10.8,2.3-7.1,6.1-7.1c5.4,0,6.8,3.7,6.8,8.8s.7,3.9,3.9,3.9c4.6,0,11.8-10.8,16.9-27.8l-21.9-75.2h0Z"/>
      <path class="st0" d="M281.8,0v26.9h-3.2c-1.2-12.4-4.8-23-18.7-23h-10.5v53.1h5.2c6.1,0,12.1-3.7,12.1-11.3v-4.1h3.4v37.2h-3.4v-5.7c0-7.4-5.5-12.2-12.1-12.2h-5.2v46.6c0,3.9.3,9.4,6.6,9.4h2.5v3h-35.1v-3h2.5c6.8,0,7-5.5,7-9.4V11.5c0-3.5,0-8.7-7.3-8.7h-2V0h58.3,0,0Z"/>
      <path class="st0" d="M291.4,8c0-4.9-2.7-5.1-5.2-5.1h-2.3V0h22.5v111.5c0,3.7,1.6,5.3,4.6,5.3h1.6v3h-28.2v-3h2c2.5,0,5-.3,5-5.3V8h0Z"/>
      <path class="st0" d="M341,37.5c-17.7,0-28.4,19.7-28.4,41.6s10.5,41.8,28.4,41.8,28.9-19.5,28.9-41.8-11.1-41.6-28.9-41.6ZM341,117.7c-7.5,0-12.8-7.8-12.8-37.5s5.2-39.8,12.8-39.8,13.2,10.3,13.2,39.8-5.5,37.5-13.2,37.5Z"/>
      <path class="st0" d="M435.8,41.6h-1.6v-2.8h21.6v2.8h-2.5c-5,.5-6.6,4.2-7.7,7.4l-18.7,70.8h-4.3l-14.1-54-13.9,54h-4.6l-19.1-74.2c-1.4-3.9-3.8-4.1-7.7-4.1v-2.8h29.4v2.8h-1.4c-3.2,0-5.4.7-4.6,3.9l10,46.6,9.5-36.7-2.5-9.7c-1.4-3.9-3.8-4.1-6.8-4.1h-.5v-2.8h29.3v2.8h-1.4c-3.2,0-5.4.7-4.6,3.9l9.8,45.3,11.4-44.8c.7-3.2-1.6-4.4-4.8-4.4h0s0,0,0,0Z"/>
      <path class="st0" d="M477.2,117.5h-.7c-7.5,0-13.2-6.6-13.2-33.8v-6.6h35c1.6,0,1.6-1.4,1.6-2.7,0-15.6-6.2-37-23.9-37s-28,20.5-28,42.3h0c0,21.3,10.9,41.1,28.7,41.1s20.2-13.5,22.8-25.1h-5.7c-2.1,9-6.1,21.8-16.6,21.8ZM475.8,40.5c7.8,0,9.3,18.4,9.3,30.4s-.5,2.3-2,2.3h-19.6c1.1-22.3,5.9-32.7,12.3-32.7Z"/>
      <path class="st0" d="M523.2,111.5c0,3.7,2,5.3,4.6,5.3h1.8v3h-28.4v-3h2c2.5,0,5-.3,5-5.3V46.7c0-4.9-2.7-5.1-5.2-5.1h-2.3v-2.8h22.5v12.2c3-7.1,8.7-13.4,17.1-13.4,0,0,8.4,0,8.4,7.6s-3,6.6-6.2,6.6c-5.9,0-6.2-5.1-9.8-5.1-8.9.2-9.5,18.1-9.5,25.7v39.3h0s0,0,0,0Z"/>
      <path class="st0" d="M553.2,96.8c.3,5.7,2.1,21.1,15,21.1s10.3-5.1,10.3-11.5c0-19.3-30-25.5-30-48.2s11.6-20.7,23-20.7,11.2,1.2,15.9,2.8v19.3h-3.8c-.5-7.4-3.2-19.1-13.2-19.1s-10.3,5.8-10.3,10.6c0,16.8,30.3,25.5,30.3,47.4s-10.7,22.3-22.3,22.3-16.6-2.5-18.5-3.3v-20.7h3.6Z"/>
    </g>
  </g>
</svg>