<?xml version="1.0" encoding="UTF-8"?>
<svg id="Layer_2" xmlns="http://www.w3.org/2000/svg" version="1.1" viewBox="0 0 859.7 153.8">
  <!-- Generator: Adobe Illustrator 29.2.1, SVG Export Plug-In . SVG Version: 2.1.0 Build 116)  -->
  <defs>
    <style>
      .st0 {
        fill: #e01983;
      }
    </style>
  </defs>
  <g id="Layer_1-2">
    <g>
      <g>
        <path class="st0" d="M291.7,38.8v72.7c0,3.7,2,5.3,4.6,5.3h1.8v3h-28.4v-3h2c2.5,0,5-.3,5-5.3V46.7c0-4.9-2.7-5.1-5.2-5.1h-2.3v-2.8h22.5,0ZM282.8,12.6c5.5,0,9.6,4.8,9.6,9.6s-4.1,10.4-9.6,10.4-9.6-4.2-9.6-10.4,4.3-9.6,9.6-9.6Z"/>
        <path class="st0" d="M335.4,0C352.3,0,365.8,7.4,365.8,26.4s-9.6,27.2-23.5,29.9c16.6,3.3,27.1,17.3,27.1,32.4s-13.4,31.2-30.8,31.2h-37.1v-3h1.8c6.6,0,6.6-4.1,6.6-9.4V11.5c0-3.5,0-8.7-6.8-8.7h-1.4V0h33.7,0ZM330.9,3.5h-4.5v51.2h7.1c8.2,0,15.5-11,15.5-26.2,0-23.5-11.2-25-18.2-25h0ZM326.5,111.3c0,4.6,2.9,4.8,4.3,4.8h4.8c10.9,0,16.2-10.8,16.2-26.9,0-26.9-13.9-30.4-18.5-30.4h-6.8v52.6h0Z"/>
        <path class="st0" d="M375.5,46.7c0-4.9-2.7-5.1-5.2-5.1h-2.3v-2.8h22.5v62.7c0,7.8,2.5,13.6,10.9,13.6s9.8-3.9,10.3-8.8v-59.5c0-4.9-2.7-5.1-5.2-5.1h-2.3v-2.8h22.5v72.7c0,3.7,2,5.3,4.6,5.3h1.8v3h-21.4v-6.2c-2.1,3-8,7.2-14.6,7.2-12.1,0-21.6-7.1-21.6-21.8v-52.4h0,0Z"/>
        <path class="st0" d="M438,45.7c-1.4-3.9-4.1-4.1-8.6-4.1v-2.8h31.6v2.8c-3.4,0-7.1.2-7.1,3.7l13.2,53.6c1.2-5.5,14.8-52.6,14.8-53.6,0-3.5-3.4-3.7-6.8-3.7v-2.8h21.8v2.8c-5,.2-7.8.5-9.3,4.1-11.1,38.6-18.4,62.1-23.4,75.9-3.8,11.7-10.7,32.2-25.3,32.2s-12.7-3.7-12.7-10.8,2.3-7.1,6.1-7.1c5.4,0,6.8,3.7,6.8,8.8s.7,3.9,3.9,3.9c4.6,0,11.8-10.8,16.9-27.8l-21.9-75.2h0Z"/>
        <path class="st0" d="M550.9,0v26.9h-3.2c-1.2-12.4-4.8-23-18.7-23h-10.5v53.1h5.2c6.1,0,12.1-3.7,12.1-11.3v-4.1h3.4v37.2h-3.4v-5.7c0-7.4-5.5-12.2-12.1-12.2h-5.2v46.6c0,3.9.3,9.4,6.6,9.4h2.5v3h-35.1v-3h2.5c6.8,0,7-5.5,7-9.4V11.5c0-3.5,0-8.7-7.3-8.7h-2V0h58.3,0,0Z"/>
        <path class="st0" d="M560.5,8c0-4.9-2.7-5.1-5.2-5.1h-2.3V0h22.5v111.5c0,3.7,1.6,5.3,4.6,5.3h1.6v3h-28.2v-3h2c2.5,0,5-.3,5-5.3V8h0Z"/>
        <path class="st0" d="M610.1,37.5c17.8,0,28.9,19.3,28.9,41.6s-11.1,41.8-28.9,41.8-28.4-19.8-28.4-41.8,10.7-41.6,28.4-41.6ZM610.1,117.7c7.7,0,13.2-8,13.2-37.5s-5.5-39.8-13.2-39.8-12.8,10.1-12.8,39.8,5.4,37.5,12.8,37.5Z"/>
        <path class="st0" d="M705,41.6h-1.6v-2.8h21.6v2.8h-2.5c-5,.5-6.6,4.2-7.7,7.4l-18.7,70.8h-4.3l-14.1-54-13.9,54h-4.6l-19.1-74.2c-1.4-3.9-3.8-4.1-7.7-4.1v-2.8h29.4v2.8h-1.4c-3.2,0-5.4.7-4.6,3.9l10,46.6,9.5-36.7-2.5-9.7c-1.4-3.9-3.8-4.1-6.8-4.1h-.5v-2.8h29.3v2.8h-1.4c-3.2,0-5.4.7-4.6,3.9l9.8,45.3,11.4-44.8c.7-3.2-1.6-4.4-4.8-4.4h0s0,0,0,0Z"/>
        <path class="st0" d="M717.1,79.8c0-21.8,10.3-42.3,28-42.3s23.9,21.4,23.9,37,0,2.7-1.6,2.7h-35v6.6c0,27.2,5.7,33.8,13.2,33.8h.7c10.5,0,14.4-12.8,16.6-21.8h5.7c-2.7,11.7-9.1,25.1-22.8,25.1s-28.7-19.8-28.7-41.1h0s0,0,0,0ZM732.6,73.3h19.6c1.4,0,2-.9,2-2.3,0-12-1.4-30.4-9.3-30.4s-11.2,10.4-12.3,32.7Z"/>
        <path class="st0" d="M792.3,111.5c0,3.7,2,5.3,4.6,5.3h1.8v3h-28.4v-3h2c2.5,0,5-.3,5-5.3V46.7c0-4.9-2.7-5.1-5.2-5.1h-2.3v-2.8h22.5v12.2c3-7.1,8.7-13.4,17.1-13.4,0,0,8.4,0,8.4,7.6s-3,6.6-6.2,6.6c-5.9,0-6.2-5.1-9.8-5.1-8.9.2-9.5,18.1-9.5,25.7v39.3h0s0,0,0,0Z"/>
        <path class="st0" d="M822.4,96.8c.3,5.7,2.1,21.1,15,21.1s10.3-5.1,10.3-11.5c0-19.3-30-25.5-30-48.2s11.6-20.7,23-20.7,11.2,1.2,15.9,2.8v19.3h-3.8c-.5-7.4-3.2-19.1-13.2-19.1s-10.3,5.8-10.3,10.6c0,16.8,30.3,25.5,30.3,47.4s-10.7,22.3-22.3,22.3-16.6-2.5-18.5-3.3v-20.7h3.6Z"/>
      </g>
      <g>
        <path class="st0" d="M93,118c-20.4,2-40.6-3.2-57.7-15C17.2,90.5,4.7,72,0,50.6c7.9-1.1,15.9-1.2,23.6-.2,2.7,10.6,7.4,20.7,13.8,29.9,13.4,19.2,33,32.5,55.6,37.7Z"/>
        <path class="st0" d="M209.1,50.6c-4.8,21.4-17.2,39.9-35.3,52.4-17.1,11.8-37.3,17-57.7,15,34.7-8,60.8-34.8,69.4-67.5,7.7-1,15.6-1.1,23.7,0h0Z"/>
        <path class="st0" d="M89.2,110.1c-18.8-5.6-35-17.2-46.4-33.6-5.4-7.7-9.4-16.1-12-24.9-.4-1.2-.7-2.4-1-3.6s-.6-2.4-.8-3.6c-2-9.6-2.3-19.5-.9-29.5,18,4,33.6,13.4,45.3,26.2-1.5,6-2.3,12-2.3,18.1,0,17.3,6.2,34.6,18,50.8h0Z"/>
        <path class="st0" d="M179.9,44.6c-.2,1.2-.5,2.4-.8,3.6-.3,1.2-.6,2.4-1,3.6-8.2,27.4-29.7,49.9-58.3,58.4,11.9-16.2,18.1-33.5,18.1-50.8s-.8-12.1-2.3-18.1c11.6-12.8,27.2-22.2,45.3-26.2,1.4,10.1,1,20.1-1,29.5h0Z"/>
        <path class="st0" d="M131.2,59.3c0,16.5-6.2,33-18.1,48.5-.9,1.3-1.9,2.5-2.9,3.7-.9,1.1-1.9,2.2-2.9,3.3-.9,1.1-1.9,2.1-2.9,3.1-1-1-1.9-2.1-2.9-3.1-1-1.1-2-2.2-2.9-3.3-1-1.2-2-2.4-2.9-3.7-11.8-15.5-18-32-18-48.5s.3-7.7,1-11.6c.3-1.4.6-2.9.9-4.3.3-1.3.6-2.6,1-3.9,4-13.4,12-26.5,23.7-38.8,11.7,12.3,19.7,25.4,23.7,38.7.4,1.3.8,2.6,1.1,4,.4,1.4.7,2.9.9,4.3.7,3.9,1,7.7,1,11.6h0Z"/>
      </g>
    </g>
  </g>
</svg>